<svg xmlns="http://www.w3.org/2000/svg" version="1.1" xmlns:xlink="http://www.w3.org/1999/xlink" xmlns:svgjs="http://svgjs.dev/svgjs" width="2000" height="358" viewBox="0 0 2000 358"><g transform="matrix(1,0,0,1,-1.2121212121212466,1.220063396929902)"><svg viewBox="0 0 396 71" data-background-color="#ffffff" preserveAspectRatio="xMidYMid meet" height="358" width="2000" xmlns="http://www.w3.org/2000/svg" xmlns:xlink="http://www.w3.org/1999/xlink"><g id="tight-bounds" transform="matrix(1,0,0,1,0.2400000000000091,-0.24196788039671446)"><svg viewBox="0 0 395.52 71.48393576079346" height="71.48393576079346" width="395.52"><g><svg viewBox="0 0 395.52 71.48393576079346" height="71.48393576079346" width="395.52"><g><svg viewBox="0 0 395.52 71.48393576079346" height="71.48393576079346" width="395.52"><g id="textblocktransform"><svg viewBox="0 0 395.52 71.48393576079346" height="71.48393576079346" width="395.52" id="textblock"><g><svg viewBox="0 0 395.52 43.6612987012987" height="43.6612987012987" width="395.52"><g transform="matrix(1,0,0,1,0,0)"><svg width="395.52" viewBox="2.1499999999999995 -32.35 300.28000000000003 33.15" height="43.6612987012987" data-palette-color="#5465ff"><path d="M5.6 0.5L5.6 0.5Q5 0.5 4.38 0.3 3.75 0.1 3.35-0.65 2.95-1.4 2.95-2.95L2.95-2.95Q2.95-4.2 3.18-6.13 3.4-8.05 3.75-10.25L3.75-10.25Q4.1-12.5 4.33-15 4.55-17.5 4.55-20.05L4.55-20.05Q4.55-21.05 4.5-22.2 4.45-23.35 4.3-24.45L4.3-24.45Q3.95-24.25 3.63-24.13 3.3-24 3-24L3-24Q2.15-24 2.15-25.65L2.15-25.65Q2.15-27.15 2.83-28.18 3.5-29.2 5.3-30.15L5.3-30.15Q7.05-31.1 9.43-31.73 11.8-32.35 14.25-32.35L14.25-32.35Q19.1-32.35 22.03-29.8 24.95-27.25 24.95-23L24.95-23Q24.95-20.4 23.9-18.2 22.85-16 21.13-14.38 19.4-12.75 17.38-11.88 15.35-11 13.4-11L13.4-11Q11.55-11 10.9-11.83 10.25-12.65 10.25-14.2L10.25-14.2Q10.25-14.95 10.43-15.58 10.6-16.2 11.2-16.2L11.2-16.2Q11.35-16.2 11.65-16.15 11.95-16.1 12.25-16L12.25-16Q12.55-15.95 13.1-15.85 13.65-15.75 14.35-15.75L14.35-15.75Q17.1-15.75 18.82-17.3 20.55-18.85 20.55-21.3L20.55-21.3Q20.55-23.85 18.65-25.3 16.75-26.75 13.75-26.75L13.75-26.75Q12.65-26.75 11.5-26.58 10.35-26.4 9.2-26.1L9.2-26.1Q9.05-22.8 8.5-18.6L8.5-18.6Q8.2-16.1 7.98-13.68 7.75-11.25 7.75-9.25L7.75-9.25Q7.75-7.5 8.08-6.18 8.4-4.85 9.4-3.9L9.4-3.9Q10.1-3.2 10.1-2.4L10.1-2.4Q10.1-1.3 8.85-0.4 7.6 0.5 5.6 0.5ZM30.45 0.55L30.45 0.55Q28.5 0.55 28.5-0.85L28.5-0.85Q28.5-1.25 28.65-1.9L28.65-1.9Q29.7-7.15 30.15-12.55L30.15-12.55Q29.4-12.35 28.95-12.35L28.95-12.35Q28.45-12.35 28.45-13.25L28.45-13.25Q28.45-14.45 29.05-15.95 29.65-17.45 30.45-18.15L30.45-18.15Q30.45-20.8 30.32-22.58 30.2-24.35 29.85-25.7 29.5-27.05 28.75-28.3L28.75-28.3Q28.3-29 28.3-29.35L28.3-29.35Q28.3-30 28.97-30.63 29.65-31.25 30.62-31.7 31.6-32.15 32.45-32.15L32.45-32.15Q34.05-32.15 34.57-30.73 35.1-29.3 35.1-27L35.1-27Q35.05-25.9 34.9-23.85 34.75-21.8 34.45-18.8L34.45-18.8Q37.6-19 40.6-19.1 43.6-19.2 46.35-19.2L46.35-19.2 50.05-19.2 50.05-20.6Q50.05-24.95 48.9-28.25L48.9-28.25Q48.55-29.1 48.55-29.45L48.55-29.45Q48.55-30.45 49.82-31.3 51.1-32.15 52.5-32.15L52.5-32.15Q54.05-32.15 54.57-31.03 55.1-29.9 55.1-27.85L55.1-27.85Q55.1-26.5 54.85-24.2 54.6-21.9 54.15-18.6L54.15-18.6Q53.7-15.1 53.45-12.83 53.2-10.55 53.2-8.8L53.2-8.8Q53.2-5.5 54.9-3.9L54.9-3.9Q55.55-3.15 55.55-2.4L55.55-2.4Q55.55-1.25 54.2-0.38 52.85 0.5 50.95 0.5L50.95 0.5Q49.75 0.5 49.05-0.15 48.35-0.8 48.35-2.95L48.35-2.95Q48.35-3.7 48.5-5.2 48.65-6.7 49-9L49-9Q49.2-10.45 49.37-11.8 49.55-13.15 49.65-14.35L49.65-14.35Q49.3-13.9 48.97-13.65 48.65-13.4 48.1-13.45L48.1-13.45Q46.3-13.55 44.52-13.63 42.75-13.7 41-13.7L41-13.7Q37.35-13.7 34.05-13.25L34.05-13.25Q34-12.9 33.97-12.08 33.95-11.25 33.95-10.7L33.95-10.7Q33.95-8.55 34.15-6.25 34.35-3.95 34.55-2.15L34.55-2.15Q34.7-0.9 33.35-0.18 32 0.55 30.45 0.55ZM71.45 0.65L71.45 0.65Q66.3 0.65 63.22-2.38 60.15-5.4 60.15-11.3L60.15-11.3Q60.15-13.95 60.87-16.8 61.6-19.65 63.3-22.45L63.3-22.45Q62.35-21.6 61.5-21.6L61.5-21.6Q60.05-21.6 60.05-23.9L60.05-23.9Q60.05-25.55 60.75-26.55 61.45-27.55 62.1-28.15L62.1-28.15Q63.2-29.1 64.9-30.08 66.6-31.05 68.9-31.7 71.2-32.35 74.05-32.35L74.05-32.35Q80.75-32.35 84.12-28.58 87.5-24.8 87.5-18.1L87.5-18.1Q87.5-14.15 86.35-10.75 85.2-7.35 83.07-4.8 80.95-2.25 78-0.8 75.05 0.65 71.45 0.65ZM73.2-4.95L73.2-4.95Q75.7-4.95 78.12-6.1 80.55-7.25 82.12-9.78 83.7-12.3 83.7-16.35L83.7-16.35Q83.7-20.15 82.25-22.43 80.8-24.7 78.57-25.73 76.35-26.75 73.9-26.75L73.9-26.75Q72.05-26.75 70.57-26.28 69.1-25.8 67.95-25.25L67.95-25.25Q66.65-23.25 65.5-20.38 64.35-17.5 64.35-14.3L64.35-14.3Q64.35-11.1 65.6-9.03 66.85-6.95 68.87-5.95 70.9-4.95 73.2-4.95ZM94.44 0.5L94.44 0.5Q93.34 0.5 92.57-0.08 91.79-0.65 91.79-2.8L91.79-2.8Q91.79-3.9 92.02-5.48 92.24-7.05 92.49-8.75L92.49-8.75Q92.89-11.15 93.29-14.03 93.69-16.9 93.69-19.75L93.69-19.75Q93.69-22.75 93.49-24.35 93.29-25.95 93.04-26.95L93.04-26.95Q92.94-27.5 92.87-27.95 92.79-28.4 92.79-28.95L92.79-28.95Q92.79-30.55 93.82-31.38 94.84-32.2 96.09-32.2L96.09-32.2Q97.34-32.2 98.19-31.58 99.04-30.95 99.69-30.25L99.69-30.25Q103.99-25.4 107.44-20.08 110.89-14.75 113.19-9.15L113.19-9.15Q113.44-8.75 113.64-8.75L113.64-8.75Q113.94-8.75 114.04-9.15L114.04-9.15Q114.94-15 114.94-19.75L114.94-19.75Q114.94-22.6 114.72-24.28 114.49-25.95 114.17-26.88 113.84-27.8 113.54-28.35L113.54-28.35Q113.39-28.7 113.29-28.98 113.19-29.25 113.19-29.5L113.19-29.5Q113.19-30.1 113.82-30.73 114.44-31.35 115.34-31.75 116.24-32.15 117.09-32.15L117.09-32.15Q118.29-32.15 118.84-31.35 119.39-30.55 119.57-29.38 119.74-28.2 119.74-27L119.74-27Q119.74-25.65 119.49-23.5 119.24-21.35 118.92-18.88 118.59-16.4 118.37-14 118.14-11.6 118.14-9.75L118.14-9.75Q118.14-8.7 118.22-7.7 118.29-6.7 118.39-5.75L118.39-5.75Q118.54-4.5 118.54-3.55L118.54-3.55Q118.54-1.7 117.62-0.63 116.69 0.45 115.09 0.45L115.09 0.45Q113.99 0.45 112.92-0.2 111.84-0.85 111.29-2.3L111.29-2.3Q109.14-7.8 106.02-13.03 102.89-18.25 99.49-22.05L99.49-22.05Q98.94-22.55 98.59-22.55L98.59-22.55Q98.09-22.55 97.94-21.45L97.94-21.45Q97.69-19.55 97.44-17.3 97.19-15.05 97.04-12.93 96.89-10.8 96.89-9.3L96.89-9.3Q96.89-7.6 97.19-6.38 97.49-5.15 98.09-4L98.09-4Q98.64-3 98.64-2.2L98.64-2.2Q98.64-1.25 97.54-0.38 96.44 0.5 94.44 0.5ZM136.29 0.65L136.29 0.65Q132.84 0.65 130.09-0.9 127.34-2.45 125.74-5.4 124.14-8.35 124.14-12.55L124.14-12.55Q124.14-16.35 125.42-19.88 126.69-23.4 129.04-26.23 131.39-29.05 134.74-30.7 138.09-32.35 142.19-32.35L142.19-32.35Q145.19-32.35 147.19-31.4 149.19-30.45 149.19-28.6L149.19-28.6Q149.19-27.7 148.72-26.83 148.24-25.95 147.49-25.35 146.74-24.75 145.94-24.75L145.94-24.75Q145.44-24.75 145.14-25L145.14-25Q142.54-26.75 139.24-26.75L139.24-26.75Q135.74-26.75 133.34-25.13 130.94-23.5 129.72-20.85 128.49-18.2 128.49-15.1L128.49-15.1Q128.49-10.45 131.12-7.7 133.74-4.95 138.14-4.95L138.14-4.95Q140.04-4.95 141.69-5.5 143.34-6.05 144.39-7.1 145.44-8.15 145.44-9.65L145.44-9.65Q145.44-11.15 144.54-11.95 143.64-12.75 142.19-13.13 140.74-13.5 139.04-13.6L139.04-13.6Q137.84-13.7 137.27-13.9 136.69-14.1 136.69-15.1L136.69-15.1Q136.69-16.3 137.44-17.1 138.19-17.9 139.29-18L139.29-18Q140.79-18.15 142.89-18.23 144.99-18.3 147.27-18.32 149.54-18.35 151.54-18.35L151.54-18.35Q152.19-18.35 152.54-18.13 152.89-17.9 152.89-17.2L152.89-17.2Q152.89-16.35 152.52-15.35 152.14-14.35 151.49-13.65 150.84-12.95 149.99-12.95L149.99-12.95 149.19-12.95Q149.34-12.45 149.47-11.83 149.59-11.2 149.59-10.4L149.59-10.4Q149.59-8.2 148.54-6.23 147.49-4.25 145.64-2.7 143.79-1.15 141.39-0.25 138.99 0.65 136.29 0.65ZM163.54 0.5L163.54 0.5Q162.94 0.5 162.31 0.3 161.69 0.1 161.29-0.65 160.89-1.4 160.89-2.95L160.89-2.95Q160.89-4.05 161.06-5.65 161.24-7.25 161.54-9.1L161.54-9.1Q161.94-11.6 162.21-14.38 162.49-17.15 162.49-20.05L162.49-20.05Q162.49-22.4 162.26-24.13 162.04-25.85 161.69-26.8L161.69-26.8Q159.79-26.75 158.09-26.55 156.39-26.35 154.64-25.9L154.64-25.9Q154.19-25.85 153.86-25.78 153.54-25.7 153.24-25.7L153.24-25.7Q152.79-25.7 152.59-25.88 152.39-26.05 152.39-26.75L152.39-26.75Q152.39-27.6 152.64-28.53 152.89-29.45 153.39-30.1L153.39-30.1Q153.89-30.8 154.56-31.13 155.24-31.45 156.04-31.55L156.04-31.55Q157.29-31.7 159.24-31.83 161.19-31.95 163.51-32.05 165.84-32.15 168.09-32.15L168.09-32.15Q171.74-32.15 173.31-32.1 174.89-32.05 175.44-31.95L175.44-31.95Q176.14-31.85 176.41-31.53 176.69-31.2 176.69-30.5L176.69-30.5Q176.69-29.15 175.49-27.8L175.49-27.8Q174.99-27.2 174.44-26.88 173.89-26.55 172.99-26.6L172.99-26.6Q172.19-26.7 170.64-26.75 169.09-26.8 167.19-26.8L167.19-26.8Q167.14-25.05 166.91-22.73 166.69-20.4 166.39-18.05L166.39-18.05Q166.09-15.75 165.89-13.45 165.69-11.15 165.69-9.25L165.69-9.25Q165.69-7.5 166.01-6.18 166.34-4.85 167.34-3.9L167.34-3.9Q168.04-3.2 168.04-2.4L168.04-2.4Q168.04-1.3 166.79-0.4 165.54 0.5 163.54 0.5ZM182.09 0.5L182.09 0.5Q181.49 0.5 180.86 0.3 180.24 0.1 179.84-0.65 179.44-1.4 179.44-2.95L179.44-2.95Q179.44-3.95 179.61-5.53 179.79-7.1 179.99-8.6L179.99-8.6Q180.39-11.1 180.71-14.1 181.04-17.1 181.04-20.05L181.04-20.05Q181.04-21.1 180.99-22.25 180.94-23.4 180.79-24.45L180.79-24.45Q180.49-24.3 180.11-24.18 179.74-24.05 179.49-24.05L179.49-24.05Q178.99-24.05 178.81-24.58 178.64-25.1 178.64-25.8L178.64-25.8Q178.64-27.4 179.41-28.38 180.19-29.35 181.74-30.15L181.74-30.15Q183.79-31.3 186.11-31.83 188.44-32.35 190.54-32.35L190.54-32.35Q193.64-32.35 196.04-31.25 198.44-30.15 199.79-28.15 201.14-26.15 201.14-23.35L201.14-23.35Q201.14-20.45 199.76-18.2 198.39-15.95 196.26-14.53 194.14-13.1 191.94-12.65L191.94-12.65Q192.74-11.4 193.66-10.15 194.59-8.9 195.54-7.9L195.54-7.9Q198.39-4.95 201.34-4.95L201.34-4.95Q202.14-4.95 202.74-5.05L202.74-5.05Q203.04-5.1 203.26-4.83 203.49-4.55 203.49-3.75L203.49-3.75Q203.49-2.8 203.09-1.83 202.69-0.85 201.74-0.2 200.79 0.45 199.14 0.45L199.14 0.45Q197.19 0.45 195.41-0.85 193.64-2.15 192.14-4.17 190.64-6.2 189.46-8.45 188.29-10.7 187.49-12.6L187.49-12.6Q187.29-13.15 187.14-13.68 186.99-14.2 186.99-14.7L186.99-14.7Q186.99-15.55 187.54-16.1L187.54-16.1Q187.94-16.5 188.66-16.65 189.39-16.8 190.79-16.8L190.79-16.8Q193.44-16.8 195.09-18.25 196.74-19.7 196.74-22L196.74-22Q196.74-24.5 194.86-25.65 192.99-26.8 190.29-26.8L190.29-26.8Q188.09-26.8 185.69-26.1L185.69-26.1Q185.54-22.85 184.99-18.65L184.99-18.65Q184.69-16.15 184.46-13.7 184.24-11.25 184.24-9.25L184.24-9.25Q184.24-7.5 184.56-6.18 184.89-4.85 185.89-3.9L185.89-3.9Q186.59-3.2 186.59-2.4L186.59-2.4Q186.59-1.3 185.34-0.4 184.09 0.5 182.09 0.5ZM217.63 0.65L217.63 0.65Q212.48 0.65 209.41-2.38 206.33-5.4 206.33-11.3L206.33-11.3Q206.33-13.95 207.06-16.8 207.78-19.65 209.48-22.45L209.48-22.45Q208.53-21.6 207.68-21.6L207.68-21.6Q206.23-21.6 206.23-23.9L206.23-23.9Q206.23-25.55 206.93-26.55 207.63-27.55 208.28-28.15L208.28-28.15Q209.38-29.1 211.08-30.08 212.78-31.05 215.08-31.7 217.38-32.35 220.23-32.35L220.23-32.35Q226.93-32.35 230.31-28.58 233.68-24.8 233.68-18.1L233.68-18.1Q233.68-14.15 232.53-10.75 231.38-7.35 229.26-4.8 227.13-2.25 224.18-0.8 221.23 0.65 217.63 0.65ZM219.38-4.95L219.38-4.95Q221.88-4.95 224.31-6.1 226.73-7.25 228.31-9.78 229.88-12.3 229.88-16.35L229.88-16.35Q229.88-20.15 228.43-22.43 226.98-24.7 224.76-25.73 222.53-26.75 220.08-26.75L220.08-26.75Q218.23-26.75 216.76-26.28 215.28-25.8 214.13-25.25L214.13-25.25Q212.83-23.25 211.68-20.38 210.53-17.5 210.53-14.3L210.53-14.3Q210.53-11.1 211.78-9.03 213.03-6.95 215.06-5.95 217.08-4.95 219.38-4.95ZM246.73 0.8L246.73 0.8Q245.03 0.8 244.11-0.33 243.18-1.45 243.03-4.25L243.03-4.25Q242.93-7.2 242.56-10.13 242.18-13.05 241.53-15.6L241.53-15.6Q240.68-19.3 239.26-22.43 237.83-25.55 235.33-27.55L235.33-27.55Q234.93-27.9 234.68-28.23 234.43-28.55 234.43-29.05L234.43-29.05Q234.43-30.15 235.56-31.15 236.68-32.15 238.18-32.15L238.18-32.15Q239.93-32.15 241.18-30.7 242.43-29.25 243.43-26.65L243.43-26.65Q245.13-22.55 245.91-17.48 246.68-12.4 246.78-7.7L246.78-7.7Q246.83-6.3 247.18-5.83 247.53-5.35 248.38-5.35L248.38-5.35Q250.18-5.35 251.91-6.75 253.63-8.15 255.06-10.55 256.48-12.95 257.33-16 258.18-19.05 258.18-22.4L258.18-22.4Q258.18-24.45 257.91-25.73 257.63-27 257.28-27.75L257.28-27.75Q256.83-28.75 256.83-29.35L256.83-29.35Q256.83-30.1 257.53-30.75 258.23-31.4 259.16-31.83 260.08-32.25 260.83-32.25L260.83-32.25Q261.83-32.25 262.28-31.53 262.73-30.8 262.88-29.7 263.03-28.6 263.03-27.45L263.03-27.45Q263.03-24 262.23-20.15 261.43-16.3 259.96-12.58 258.48-8.85 256.46-5.83 254.43-2.8 251.98-1 249.53 0.8 246.73 0.8ZM270.53 0.5L270.53 0.5Q269.33 0.5 268.58-0.15 267.83-0.8 267.83-2.8L267.83-2.8Q267.83-3.8 268.03-5.4 268.23-7 268.43-8.6L268.43-8.6Q268.98-12.15 269.23-14.75 269.48-17.35 269.48-20.05L269.48-20.05Q269.48-22.55 269.2-24.7 268.93-26.85 267.83-28.4L267.83-28.4Q267.43-29.05 267.43-29.4L267.43-29.4Q267.43-30 268.1-30.68 268.78-31.35 269.75-31.8 270.73-32.25 271.58-32.25L271.58-32.25Q273.13-32.25 273.65-30.88 274.18-29.5 274.18-27.45L274.18-27.45Q274.18-26.2 274.03-24.35 273.88-22.5 273.7-20.78 273.53-19.05 273.38-18.1L273.38-18.1Q273.03-15.45 272.83-13.15 272.63-10.85 272.63-9.25L272.63-9.25Q272.63-7.35 273-6.05 273.38-4.75 274.33-3.9L274.33-3.9Q274.98-3.3 274.98-2.55L274.98-2.55Q274.98-1.35 273.75-0.43 272.53 0.5 270.53 0.5ZM283.08 0.5L283.08 0.5Q282.48 0.5 281.85 0.3 281.23 0.1 280.83-0.65 280.43-1.4 280.43-2.95L280.43-2.95Q280.43-4.2 280.65-6.13 280.88-8.05 281.23-10.25L281.23-10.25Q281.58-12.5 281.8-15 282.03-17.5 282.03-20.05L282.03-20.05Q282.03-21.05 281.98-22.2 281.93-23.35 281.78-24.45L281.78-24.45Q281.43-24.25 281.1-24.13 280.78-24 280.48-24L280.48-24Q279.63-24 279.63-25.65L279.63-25.65Q279.63-27.15 280.3-28.18 280.98-29.2 282.78-30.15L282.78-30.15Q284.53-31.1 286.9-31.73 289.28-32.35 291.73-32.35L291.73-32.35Q296.58-32.35 299.5-29.8 302.43-27.25 302.43-23L302.43-23Q302.43-20.4 301.38-18.2 300.33-16 298.6-14.38 296.88-12.75 294.85-11.88 292.83-11 290.88-11L290.88-11Q289.03-11 288.38-11.83 287.73-12.65 287.73-14.2L287.73-14.2Q287.73-14.95 287.9-15.58 288.08-16.2 288.68-16.2L288.68-16.2Q288.83-16.2 289.13-16.15 289.43-16.1 289.73-16L289.73-16Q290.03-15.95 290.58-15.85 291.13-15.75 291.83-15.75L291.83-15.75Q294.58-15.75 296.3-17.3 298.03-18.85 298.03-21.3L298.03-21.3Q298.03-23.85 296.13-25.3 294.23-26.75 291.23-26.75L291.23-26.75Q290.13-26.75 288.98-26.58 287.83-26.4 286.68-26.1L286.68-26.1Q286.53-22.8 285.98-18.6L285.98-18.6Q285.68-16.1 285.45-13.68 285.23-11.25 285.23-9.25L285.23-9.25Q285.23-7.5 285.55-6.18 285.88-4.85 286.88-3.9L286.88-3.9Q287.58-3.2 287.58-2.4L287.58-2.4Q287.58-1.3 286.33-0.4 285.08 0.5 283.08 0.5Z" opacity="1" transform="matrix(1,0,0,1,0,0)" fill="#5465ff" class="wordmark-text-0" data-fill-palette-color="primary" id="text-0"></path></svg></g></svg></g><g transform="matrix(1,0,0,1,163.310208,53.968683453506486)"><svg viewBox="0 0 232.209792 17.51525230728697" height="17.51525230728697" width="232.209792"><g transform="matrix(1,0,0,1,0,0)"><svg width="232.209792" viewBox="1.9383335333419998 -44.15 744.331666466658 56.15" height="17.51525230728697" data-palette-color="#5465ff"><path d="M13.85 0.3L13.85 0.3Q10.7 0.3 8.43-0.98 6.15-2.25 4.67-4.48 3.2-6.7 2.53-9.53 1.85-12.35 1.95-15.4L1.95-15.4Q2.15-20.85 3.95-24.8 5.75-28.75 8.5-31.3 11.25-33.85 14.43-35.08 17.6-36.3 20.55-36.3L20.55-36.3Q23.05-36.3 25.08-35.48 27.1-34.65 28.3-33.08 29.5-31.5 29.5-29.25L29.5-29.25Q29.5-27.5 28.48-25.88 27.45-24.25 25.38-23.23 23.3-22.2 20.05-22.2L20.05-22.2Q20.6-23.8 20.85-25 21.1-26.2 21.1-27.05L21.1-27.05Q21.1-28.8 20.3-29.43 19.5-30.05 18.3-30.05L18.3-30.05Q16.85-30.05 15.55-29 14.25-27.95 13.23-26.18 12.2-24.4 11.6-22.25 11-20.1 10.9-17.9L10.9-17.9Q10.7-12.35 12.5-9.5 14.3-6.65 17.15-6.65L17.15-6.65Q19.35-6.65 22.03-8.45 24.7-10.25 27.3-13.9L27.3-13.9 27.95-13.6Q27.3-9.1 25.1-6 22.9-2.9 19.93-1.3 16.95 0.3 13.85 0.3ZM36.45 0.2L36.45 0.2Q34.3 0.2 33-1.25 31.7-2.7 31.7-5.2L31.7-5.2Q31.7-6.55 32.05-8.72 32.4-10.9 32.92-13.53 33.45-16.15 33.95-18.88 34.45-21.6 34.8-24.15 35.15-26.7 35.15-28.65L35.15-28.65Q35.15-31.1 34.5-32.2L34.5-32.2 34.5-32.5Q35.6-33.75 36.9-34.35 38.2-34.95 39.45-34.95L39.45-34.95Q41.35-34.95 42.7-33.6 44.05-32.25 44.05-29.55L44.05-29.55Q44.05-28.1 43.65-26 43.25-23.9 42.7-21.6 42.15-19.3 41.6-17.3L41.6-17.3Q42.55-19.15 44.12-20.98 45.7-22.8 47.72-24 49.75-25.2 51.95-25.2L51.95-25.2Q54.45-25.2 55.32-23.65 56.2-22.1 56.2-19.8L56.2-19.8Q56.2-17.7 55.75-15.33 55.3-12.95 54.85-10.78 54.4-8.6 54.4-7.15L54.4-7.15Q54.4-5.05 55.65-5.05L55.65-5.05Q56.2-5.05 56.62-5.38 57.05-5.7 57.25-6.1L57.25-6.1 57.6-5.85Q57.6-3.9 56.65-2.55 55.7-1.2 54.22-0.5 52.75 0.2 51.2 0.2L51.2 0.2Q49.15 0.2 47.5-1.18 45.85-2.55 45.85-5.65L45.85-5.65Q45.85-7.4 46.32-9.45 46.8-11.5 47.25-13.43 47.7-15.35 47.7-16.65L47.7-16.65Q47.7-18.35 46.5-18.35L46.5-18.35Q45.4-18.35 44.1-17.25 42.8-16.15 41.82-14.5 40.85-12.85 40.55-11.25L40.55-11.25Q40.45-10.85 40.45-10.3L40.45-10.3Q40.45-9.05 40.82-7.9 41.2-6.75 41.2-5.2L41.2-5.2Q41.2-2.9 40-1.35 38.8 0.2 36.45 0.2ZM71.15 0.35L71.15 0.35Q67.4 0.35 64.95-1.15 62.5-2.65 61.32-5.13 60.15-7.6 60.15-10.4L60.15-10.4Q60.15-13.05 61.12-15.7 62.1-18.35 63.97-20.53 65.84-22.7 68.55-24.03 71.25-25.35 74.75-25.35L74.75-25.35Q78.5-25.35 80.92-23.83 83.34-22.3 84.52-19.8 85.7-17.3 85.7-14.45L85.7-14.45Q85.7-11.85 84.75-9.22 83.8-6.6 81.92-4.42 80.05-2.25 77.34-0.95 74.65 0.35 71.15 0.35ZM72.5-3.9L72.5-3.9Q73.84-3.9 74.75-5.3 75.65-6.7 76.09-8.88 76.55-11.05 76.55-13.3L76.55-13.3Q76.55-15.3 76.17-17.07 75.8-18.85 75.05-19.98 74.3-21.1 73.09-21.1L73.09-21.1Q71.8-21.1 70.87-19.7 69.95-18.3 69.5-16.15 69.05-14 69.05-11.7L69.05-11.7Q69.05-9.7 69.42-7.93 69.8-6.15 70.55-5.03 71.3-3.9 72.5-3.9ZM69.55-38.1L69.55-38.1Q69.2-38.8 69.2-39.65L69.2-39.65Q69.2-41.3 70.45-42.53 71.7-43.75 73.55-43.75L73.55-43.75Q75.2-43.75 76.55-43.33 77.9-42.9 79.25-42.9L79.25-42.9Q80.05-42.9 80.87-43.2 81.7-43.5 82.65-44.15L82.65-44.15Q83.25-43.1 83.25-42L83.25-42Q83.25-40.55 82.15-39.5 81.05-38.45 78.84-38.45L78.84-38.45Q76.59-38.45 75.12-38.95 73.65-39.45 72.4-39.45L72.4-39.45Q71.75-39.45 71.07-39.15 70.4-38.85 69.55-38.1ZM67.65-27.3L67.65-27.3Q66.95-27.3 66.5-27.63 66.05-27.95 66.05-28.55L66.05-28.55Q66.05-28.85 66.2-29.3L66.2-29.3Q66.9-31.2 68.55-32.85 70.2-34.5 72.15-35.5 74.09-36.5 75.65-36.5L75.65-36.5Q77.09-36.5 78.5-35.48 79.9-34.45 80.95-32.85 82-31.25 82.4-29.5L82.4-29.5Q82.65-28.5 82.02-27.95 81.4-27.4 80.5-27.4L80.5-27.4Q80.3-27.4 80.15-27.4 80-27.4 79.8-27.45L79.8-27.45Q77.95-28.75 76.62-29.95 75.3-31.15 74.8-31.15L74.8-31.15Q74.4-31.15 73.34-30.48 72.3-29.8 70.97-28.93 69.65-28.05 68.3-27.35L68.3-27.35Q68.09-27.3 67.95-27.3 67.8-27.3 67.65-27.3ZM108.49 0.35L108.49 0.35Q104.74 0.35 102.29-1.15 99.84-2.65 98.67-5.13 97.49-7.6 97.49-10.4L97.49-10.4Q97.49-13.05 98.47-15.7 99.44-18.35 101.31-20.53 103.19-22.7 105.89-24.03 108.59-25.35 112.09-25.35L112.09-25.35Q113.29-25.35 114.34-25.18 115.39-25 116.29-24.7L116.29-24.7Q118.64-25.5 119.37-26.68 120.09-27.85 120.09-29.05L120.09-29.05Q120.09-30.5 119.79-31.9L119.79-31.9Q120.49-32.15 121.09-32.23 121.69-32.3 122.19-32.3L122.19-32.3Q124.04-32.3 124.97-31.65 125.89-31 126.22-30.13 126.54-29.25 126.54-28.45L126.54-28.45Q126.54-26.25 124.84-24.65 123.14-23.05 119.94-22.5L119.94-22.5Q121.54-20.95 122.29-18.85 123.04-16.75 123.04-14.45L123.04-14.45Q123.04-11.85 122.09-9.22 121.14-6.6 119.27-4.42 117.39-2.25 114.69-0.95 111.99 0.35 108.49 0.35ZM109.84-3.9L109.84-3.9Q111.19-3.9 112.09-5.3 112.99-6.7 113.44-8.88 113.89-11.05 113.89-13.3L113.89-13.3Q113.89-15.3 113.52-17.07 113.14-18.85 112.39-19.98 111.64-21.1 110.44-21.1L110.44-21.1Q109.14-21.1 108.22-19.7 107.29-18.3 106.84-16.15 106.39-14 106.39-11.7L106.39-11.7Q106.39-9.7 106.77-7.93 107.14-6.15 107.89-5.03 108.64-3.9 109.84-3.9ZM113.59-28.1L113.59-28.1Q113.29-27.7 112.49-27.58 111.69-27.45 110.79-27.63 109.89-27.8 109.22-28.3 108.54-28.8 108.54-29.7L108.54-29.7Q108.54-30.55 109.22-31.08 109.89-31.6 110.89-31.95 111.89-32.3 112.89-32.58 113.89-32.85 114.56-33.13 115.24-33.4 115.24-33.85L115.24-33.85Q115.24-34.45 114.09-34.63 112.94-34.8 111.29-34.43 109.64-34.05 108.14-32.95L108.14-32.95Q106.34-34 106.17-35.15 105.99-36.3 107.02-37.33 108.04-38.35 109.89-38.98 111.74-39.6 114.04-39.6L114.04-39.6Q116.49-39.6 118.29-38.65 120.09-37.7 120.09-35.35L120.09-35.35Q120.09-34.1 119.34-33.23 118.59-32.35 117.52-31.73 116.44-31.1 115.42-30.58 114.39-30.05 113.84-29.48 113.29-28.9 113.59-28.1ZM142.03 0.2L142.03 0.2Q140.44 0.2 139.01-0.53 137.59-1.25 136.71-2.8 135.84-4.35 135.84-6.75L135.84-6.75Q135.84-8.05 136.09-10.15 136.34-12.25 136.76-14.75 137.19-17.25 137.63-19.75L137.63-19.75Q136.63-19.7 135.71-19.55 134.78-19.4 133.88-19.2L133.88-19.2 133.78-19.55Q134.78-20.75 135.88-21.6 136.99-22.45 138.19-23L138.19-23Q138.84-26.3 139.28-28.73 139.74-31.15 139.74-31.6L139.74-31.6Q139.74-32.45 141.06-33 142.38-33.55 144.03-33.55L144.03-33.55Q145.49-33.55 146.76-33 148.03-32.45 148.49-31.15L148.49-31.15Q148.19-30.85 147.63-28.93 147.09-27 146.49-24.25L146.49-24.25Q147.44-24.2 148.44-24.15 149.44-24.1 150.49-24L150.49-24Q150.59-23.7 150.63-23.35 150.69-23 150.69-22.6L150.69-22.6Q150.69-21.85 150.46-20.98 150.24-20.1 149.94-19.4L149.94-19.4Q148.74-19.5 147.69-19.63 146.63-19.75 145.63-19.8L145.63-19.8Q145.24-17.65 144.91-15.5 144.59-13.35 144.41-11.6 144.24-9.85 144.24-8.85L144.24-8.85Q144.24-6.75 145.01-6.05 145.78-5.35 146.88-5.35L146.88-5.35Q147.88-5.35 148.69-5.75 149.49-6.15 149.84-6.7L149.84-6.7 150.34-6.55Q150.03-4.5 148.74-2.98 147.44-1.45 145.63-0.63 143.84 0.2 142.03 0.2ZM159.23 0.2L159.23 0.2Q156.98 0.2 155.46-1.65 153.93-3.5 153.93-6.6L153.93-6.6Q153.93-8.3 154.33-10.25 154.73-12.2 155.13-13.95L155.13-13.95Q155.48-15.25 155.71-16.38 155.93-17.5 155.93-18.2L155.93-18.2Q155.93-19.1 155.56-19.5 155.18-19.9 154.68-19.9L154.68-19.9Q154.18-19.9 153.68-19.58 153.18-19.25 152.88-18.6L152.88-18.6 152.48-18.75Q152.48-20.8 153.48-22.25 154.48-23.7 156.03-24.45 157.58-25.2 159.18-25.2L159.18-25.2Q160.48-25.2 161.68-24.68 162.88-24.15 163.66-23.05 164.43-21.95 164.43-20.3L164.43-20.3Q164.43-19.3 164.16-17.9 163.88-16.5 163.53-15L163.53-15Q163.18-13.45 162.86-11.88 162.53-10.3 162.53-9.1L162.53-9.1Q162.53-8 162.88-7.3 163.23-6.6 163.93-6.6L163.93-6.6Q165.23-6.6 166.86-9 168.48-11.4 169.48-15.45L169.48-15.45Q169.68-16.25 169.83-17.15 169.98-18.05 169.98-19L169.98-19Q169.98-19.75 169.88-20.53 169.78-21.3 169.58-22.1L169.58-22.1 169.58-22.45Q170.38-23.8 171.66-24.5 172.93-25.2 174.23-25.2L174.23-25.2Q175.98-25.2 177.38-24 178.78-22.8 178.78-20.5L178.78-20.5Q178.78-19.15 178.28-17.38 177.78-15.6 177.18-13.7L177.18-13.7Q176.58-11.85 176.08-10.05 175.58-8.25 175.58-6.85L175.58-6.85Q175.58-4.8 177.03-4.8L177.03-4.8Q177.43-4.8 178.01-5.03 178.58-5.25 179.08-5.95L179.08-5.95 179.43-5.85Q179.43-4.05 178.46-2.68 177.48-1.3 175.98-0.55 174.48 0.2 172.88 0.2L172.88 0.2Q170.83 0.2 169.21-1.3 167.58-2.8 167.58-6.2L167.58-6.2 167.58-6.3Q165.53-2.8 163.33-1.3 161.13 0.2 159.23 0.2ZM192.38 10L192.38 10Q189.88 10 188.36 8.47 186.83 6.95 186.83 4.35L186.83 4.35Q186.83 3 187.31 1.38 187.78-0.25 188.88-2.05L188.88-2.05Q186.43-2.2 184.86-3.7 183.28-5.2 183.28-8.25L183.28-8.25Q183.28-10.05 183.76-12.13 184.23-14.2 184.68-16.03 185.13-17.85 185.13-18.85L185.13-18.85Q185.13-19.6 184.83-19.93 184.53-20.25 184.13-20.25L184.13-20.25Q183.73-20.25 183.26-19.93 182.78-19.6 182.53-18.95L182.53-18.95 181.68-19.85Q181.98-21.4 182.98-22.6 183.98-23.8 185.43-24.5 186.88-25.2 188.43-25.2L188.43-25.2Q190.18-25.2 191.48-24.08 192.78-22.95 192.78-20L192.78-20Q192.78-18.15 192.33-16.03 191.88-13.9 191.43-12.03 190.98-10.15 190.98-9.05L190.98-9.05Q190.98-8.05 191.41-7.58 191.83-7.1 192.38-7.1L192.38-7.1Q193.08-7.1 193.98-7.88 194.88-8.65 195.68-10.45 196.48-12.25 196.73-15.3L196.73-15.3Q196.83-16.25 196.88-17.73 196.93-19.2 196.98-20.48 197.03-21.75 197.03-22.05L197.03-22.05Q197.03-23.85 198.36-24.58 199.68-25.3 201.28-25.3L201.28-25.3Q202.68-25.3 203.93-24.75 205.18-24.2 205.63-22.9L205.63-22.9 205.73-22.6Q205.28-22.2 204.96-19.9 204.63-17.6 204.18-13.75L204.18-13.75Q203.88-11.25 203.43-8.1 202.98-4.95 202.21-1.78 201.43 1.4 200.16 4.08 198.88 6.75 196.98 8.38 195.08 10 192.38 10ZM191.18 4.25L191.18 4.25Q192.73 4.25 193.96 1.43 195.18-1.4 195.88-6.6L195.88-6.6Q192.68-2.5 191.48-0.15 190.28 2.2 190.28 3.25L190.28 3.25Q190.28 4.25 191.18 4.25ZM218.98 0.35L218.98 0.35Q215.33 0.35 212.93-1.13 210.53-2.6 209.33-5.03 208.13-7.45 208.13-10.25L208.13-10.25Q208.13-12.9 209.15-15.58 210.18-18.25 212.15-20.45 214.13-22.65 216.95-24 219.78-25.35 223.33-25.35L223.33-25.35Q227.73-25.35 229.75-23.38 231.78-21.4 231.78-18.6L231.78-18.6Q231.78-16.2 230.5-14.18 229.23-12.15 227.13-10.93 225.03-9.7 222.53-9.7L222.53-9.7Q221.23-9.7 219.88-10.1 218.53-10.5 217.23-11.35L217.23-11.35Q217.48-8.25 219.03-6.85 220.58-5.45 222.73-5.45L222.73-5.45Q224.23-5.45 225.73-6.03 227.23-6.6 228.5-7.53 229.78-8.45 230.48-9.5L230.48-9.5 230.83-9.25Q230.83-6.65 229.75-4.83 228.68-3 226.93-1.85 225.18-0.7 223.1-0.18 221.03 0.35 218.98 0.35ZM220.13-13.15L220.13-13.15Q221.73-13.15 222.73-14.08 223.73-15 224.23-16.25 224.73-17.5 224.73-18.45L224.73-18.45Q224.73-19.6 224.08-20.38 223.43-21.15 222.28-21.15L222.28-21.15Q221.38-21.15 220.3-20.5 219.23-19.85 218.38-18.28 217.53-16.7 217.28-13.9L217.28-13.9Q218.88-13.15 220.13-13.15ZM217.53 12L217.53 12Q215.83 12 214.7 10.75 213.58 9.5 213.68 7.65L213.68 7.65Q213.83 5.6 215.25 4.13 216.68 2.65 218.53 2.65L218.53 2.65Q220.28 2.65 221.4 3.9 222.53 5.15 222.43 7L222.43 7Q222.28 9.1 220.85 10.55 219.43 12 217.53 12ZM216.83-27.25L216.83-27.25Q215.68-27 214.98-27.63 214.28-28.25 214.73-29.7L214.73-29.7Q215.43-32.05 217.05-34.13 218.68-36.2 220.73-37.48 222.78-38.75 224.73-38.75L224.73-38.75Q226.78-38.75 228.33-37.43 229.88-36.1 230.83-34.1 231.78-32.1 231.93-29.95L231.93-29.95Q232.08-28.4 231.28-27.78 230.48-27.15 229.33-27.4L229.33-27.4Q228.88-28.5 227.83-29.58 226.78-30.65 225.68-31.38 224.58-32.1 223.93-32.1L223.93-32.1Q223.48-32.1 222.53-31.65 221.58-31.2 220.48-30.48 219.38-29.75 218.38-28.9 217.38-28.05 216.83-27.25ZM241.38 0.2L241.38 0.2Q239.78 0.2 238.35-0.53 236.93-1.25 236.05-2.8 235.18-4.35 235.18-6.75L235.18-6.75Q235.18-8.05 235.43-10.15 235.68-12.25 236.1-14.75 236.53-17.25 236.98-19.75L236.98-19.75Q235.98-19.7 235.05-19.55 234.13-19.4 233.23-19.2L233.23-19.2 233.13-19.55Q234.13-20.75 235.23-21.6 236.33-22.45 237.53-23L237.53-23Q238.18-26.3 238.63-28.73 239.08-31.15 239.08-31.6L239.08-31.6Q239.08-32.45 240.4-33 241.73-33.55 243.38-33.55L243.38-33.55Q244.83-33.55 246.1-33 247.38-32.45 247.83-31.15L247.83-31.15Q247.53-30.85 246.98-28.93 246.43-27 245.83-24.25L245.83-24.25Q246.78-24.2 247.78-24.15 248.78-24.1 249.83-24L249.83-24Q249.93-23.7 249.98-23.35 250.03-23 250.03-22.6L250.03-22.6Q250.03-21.85 249.8-20.98 249.58-20.1 249.28-19.4L249.28-19.4Q248.08-19.5 247.03-19.63 245.98-19.75 244.98-19.8L244.98-19.8Q244.58-17.65 244.25-15.5 243.93-13.35 243.75-11.6 243.58-9.85 243.58-8.85L243.58-8.85Q243.58-6.75 244.35-6.05 245.13-5.35 246.23-5.35L246.23-5.35Q247.23-5.35 248.03-5.75 248.83-6.15 249.18-6.7L249.18-6.7 249.68-6.55Q249.38-4.5 248.08-2.98 246.78-1.45 244.98-0.63 243.18 0.2 241.38 0.2ZM268.37 0.2L268.37 0.2Q265.47 0.2 263.77-1.33 262.07-2.85 262.07-6.05L262.07-6.05Q262.07-7.9 262.55-10 263.02-12.1 263.47-13.75L263.47-13.75Q263.92-15.35 264.19-16.55 264.47-17.75 264.47-18.4L264.47-18.4Q264.47-19.2 264.12-19.55 263.77-19.9 263.27-19.9L263.27-19.9Q262.07-19.9 261.27-18.75L261.27-18.75 261.07-18.95Q261.12-20.65 262.17-22.08 263.22-23.5 264.87-24.35 266.52-25.2 268.22-25.2L268.22-25.2Q270.12-25.2 271.47-24.08 272.82-22.95 272.72-20.55L272.72-20.55Q272.67-19.5 272.35-17.9 272.02-16.3 271.47-14.1L271.47-14.1Q271.12-12.7 270.75-10.93 270.37-9.15 270.37-7.7L270.37-7.7Q270.37-6.6 270.72-5.95 271.07-5.3 271.87-5.3L271.87-5.3Q272.92-5.3 274.19-6.48 275.47-7.65 276.42-10.33 277.37-13 277.52-17.45L277.52-17.45Q277.67-20.85 277.07-22.4L277.07-22.4 277.07-22.65Q277.52-23.35 278.44-24 279.37-24.65 280.52-25.08 281.67-25.5 282.67-25.5L282.67-25.5Q284.27-25.5 285.4-23.95 286.52-22.4 286.37-18.55L286.37-18.55Q286.27-14.85 285.05-11.85 283.82-8.85 281.87-6.6 279.92-4.35 277.6-2.85 275.27-1.35 272.87-0.58 270.47 0.2 268.37 0.2ZM299.57 0.35L299.57 0.35Q295.82 0.35 293.37-1.15 290.92-2.65 289.74-5.13 288.57-7.6 288.57-10.4L288.57-10.4Q288.57-13.05 289.54-15.7 290.52-18.35 292.39-20.53 294.27-22.7 296.97-24.03 299.67-25.35 303.17-25.35L303.17-25.35Q304.37-25.35 305.42-25.18 306.47-25 307.37-24.7L307.37-24.7Q309.72-25.5 310.44-26.68 311.17-27.85 311.17-29.05L311.17-29.05Q311.17-30.5 310.87-31.9L310.87-31.9Q311.57-32.15 312.17-32.23 312.77-32.3 313.27-32.3L313.27-32.3Q315.12-32.3 316.04-31.65 316.97-31 317.29-30.13 317.62-29.25 317.62-28.45L317.62-28.45Q317.62-26.25 315.92-24.65 314.22-23.05 311.02-22.5L311.02-22.5Q312.62-20.95 313.37-18.85 314.12-16.75 314.12-14.45L314.12-14.45Q314.12-11.85 313.17-9.22 312.22-6.6 310.34-4.42 308.47-2.25 305.77-0.95 303.07 0.35 299.57 0.35ZM300.92-3.9L300.92-3.9Q302.27-3.9 303.17-5.3 304.07-6.7 304.52-8.88 304.97-11.05 304.97-13.3L304.97-13.3Q304.97-15.3 304.59-17.07 304.22-18.85 303.47-19.98 302.72-21.1 301.52-21.1L301.52-21.1Q300.22-21.1 299.29-19.7 298.37-18.3 297.92-16.15 297.47-14 297.47-11.7L297.47-11.7Q297.47-9.7 297.84-7.93 298.22-6.15 298.97-5.03 299.72-3.9 300.92-3.9ZM302.77-27.05L302.77-27.05Q300.17-28.25 298.57-29.35 296.97-30.45 296.07-31.6 295.17-32.75 294.57-34.05L294.57-34.05Q293.87-35.65 294.32-36.88 294.77-38.1 295.89-38.83 297.02-39.55 298.44-39.75 299.87-39.95 301.17-39.55L301.17-39.55Q301.07-38.15 301.69-36.13 302.32-34.1 303.39-32.02 304.47-29.95 305.72-28.45L305.72-28.45Q305.72-27.4 304.94-26.9 304.17-26.4 302.77-27.05ZM326.42-26.75L326.42-26.75Q324.42-26.75 323.14-27.98 321.87-29.2 321.87-31.05L321.87-31.05Q321.87-33.05 323.37-34.5 324.87-35.95 327.02-35.95L327.02-35.95Q329.02-35.95 330.29-34.7 331.57-33.45 331.57-31.6L331.57-31.6Q331.57-29.6 330.07-28.18 328.57-26.75 326.42-26.75ZM322.92 0.2L322.92 0.2Q320.97 0.2 319.42-1.18 317.87-2.55 317.87-5.6L317.87-5.6Q317.87-7.35 318.34-8.88 318.82-10.4 319.44-11.85 320.07-13.3 320.54-14.68 321.02-16.05 321.02-17.4L321.02-17.4Q321.02-18.6 320.62-19.13 320.22-19.65 319.67-19.65L319.67-19.65Q318.82-19.65 318.02-18.55L318.02-18.55 317.67-18.75Q317.87-20.75 318.94-22.18 320.02-23.6 321.59-24.4 323.17-25.2 324.72-25.2L324.72-25.2Q326.62-25.2 328.02-23.98 329.42-22.75 329.42-20L329.42-20Q329.42-18.35 328.94-16.53 328.47-14.7 327.84-12.9 327.22-11.1 326.74-9.55 326.27-8 326.27-6.9L326.27-6.9Q326.27-5.95 326.64-5.55 327.02-5.15 327.47-5.15L327.47-5.15Q327.92-5.15 328.34-5.43 328.77-5.7 328.97-6.05L328.97-6.05 329.32-5.95Q329.32-4.1 328.34-2.73 327.37-1.35 325.92-0.58 324.47 0.2 322.92 0.2ZM331.86 7.55L331.86 7.55Q331.46 7.15 331.21 6.4L331.21 6.4Q332.91 5.25 333.46 3.98 334.01 2.7 334.01 1.3L334.01 1.3Q334.01-0.2 333.69-1.68 333.36-3.15 333.36-4.4L333.36-4.4Q333.36-6.65 334.74-7.95 336.11-9.25 338.41-9.25L338.41-9.25Q340.86-9.25 342.04-7.88 343.21-6.5 343.21-4.45L343.21-4.45Q343.21-2.35 341.94 0.1 340.66 2.55 338.16 4.58 335.66 6.6 331.86 7.55ZM367.36 10L367.36 10Q364.91 10 363.31 8.55 361.71 7.1 361.71 4.45L361.71 4.45Q361.71 1.6 363.71-2.25L363.71-2.25Q363.36-2.15 363.01-2.1 362.66-2.05 362.31-2.05L362.31-2.05Q359.41-2.05 357.43-4.58 355.46-7.1 355.46-11.6L355.46-11.6Q355.46-15.65 357.03-18.75 358.61-21.85 361.06-23.6 363.51-25.35 366.16-25.35L366.16-25.35Q368.01-25.35 369.51-24.43 371.01-23.5 371.96-21.45L371.96-21.45Q372.01-21.95 372.01-22.35 372.01-22.75 372.01-23.1L372.01-23.1Q372.01-23.95 373.31-24.5 374.61-25.05 376.21-25.05L376.21-25.05Q377.66-25.05 378.91-24.5 380.16-23.95 380.56-22.65L380.56-22.65 380.66-22.35Q380.21-21.95 379.88-19.75 379.56-17.55 379.11-13.65L379.11-13.65Q378.81-11.2 378.36-8.08 377.91-4.95 377.13-1.78 376.36 1.4 375.11 4.08 373.86 6.75 371.96 8.38 370.06 10 367.36 10ZM365.71-7.8L365.71-7.8Q367.16-7.8 368.93-10.18 370.71-12.55 371.76-17L371.76-17Q370.86-18.95 369.93-19.78 369.01-20.6 368.06-20.6L368.06-20.6Q366.81-20.6 365.71-19.35 364.61-18.1 363.93-16.18 363.26-14.25 363.26-12.2L363.26-12.2Q363.26-10.1 363.96-8.95 364.66-7.8 365.71-7.8ZM365.11 4.25L365.11 4.25Q366.81 4.25 368.58 0.93 370.36-2.4 371.06-8.45L371.06-8.45Q367.26-3.3 365.78-0.53 364.31 2.25 364.31 3.4L364.31 3.4Q364.31 4.25 365.11 4.25ZM392.46-26.75L392.46-26.75Q390.46-26.75 389.18-27.98 387.91-29.2 387.91-31.05L387.91-31.05Q387.91-33.05 389.41-34.5 390.91-35.95 393.06-35.95L393.06-35.95Q395.06-35.95 396.33-34.7 397.61-33.45 397.61-31.6L397.61-31.6Q397.61-29.6 396.11-28.18 394.61-26.75 392.46-26.75ZM388.96 0.2L388.96 0.2Q387.01 0.2 385.46-1.18 383.91-2.55 383.91-5.6L383.91-5.6Q383.91-7.35 384.38-8.88 384.86-10.4 385.48-11.85 386.11-13.3 386.58-14.68 387.06-16.05 387.06-17.4L387.06-17.4Q387.06-18.6 386.66-19.13 386.26-19.65 385.71-19.65L385.71-19.65Q384.86-19.65 384.06-18.55L384.06-18.55 383.71-18.75Q383.91-20.75 384.98-22.18 386.06-23.6 387.63-24.4 389.21-25.2 390.76-25.2L390.76-25.2Q392.66-25.2 394.06-23.98 395.46-22.75 395.46-20L395.46-20Q395.46-18.35 394.98-16.53 394.51-14.7 393.88-12.9 393.26-11.1 392.78-9.55 392.31-8 392.31-6.9L392.31-6.9Q392.31-5.95 392.68-5.55 393.06-5.15 393.51-5.15L393.51-5.15Q393.96-5.15 394.38-5.43 394.81-5.7 395.01-6.05L395.01-6.05 395.36-5.95Q395.36-4.1 394.38-2.73 393.41-1.35 391.96-0.58 390.51 0.2 388.96 0.2ZM417.5 0.25L417.5 0.25Q415.75 0.25 414.45-0.9 413.15-2.05 413.15-4.65L413.15-4.65Q413.15-4.9 413.15-5.15 413.15-5.4 413.2-5.65L413.2-5.65Q411.7-2.65 409.83-1.23 407.95 0.2 406.05 0.2L406.05 0.2Q404.3 0.2 402.75-1.03 401.2-2.25 400.25-4.65 399.3-7.05 399.3-10.45L399.3-10.45Q399.3-13.95 400.28-16.7 401.25-19.45 402.85-21.35 404.45-23.25 406.35-24.23 408.25-25.2 410.05-25.2L410.05-25.2Q412.05-25.2 413.65-23.98 415.25-22.75 415.85-20.1L415.85-20.1Q416-20.95 416.08-21.65 416.15-22.35 416.15-22.6L416.15-22.6Q416.2-23.95 417.53-24.6 418.85-25.25 420.45-25.25L420.45-25.25Q421.85-25.25 423.1-24.7 424.35-24.15 424.8-22.85L424.8-22.85 424.9-22.55Q424.3-21.2 423.7-19.3 423.1-17.4 422.6-15.33 422.1-13.25 421.8-11.28 421.5-9.3 421.5-7.8L421.5-7.8Q421.5-6.15 421.85-5.53 422.2-4.9 422.7-4.9L422.7-4.9Q423.55-4.9 424.25-6.1L424.25-6.1 424.65-5.9Q424.65-4.2 423.55-2.8 422.45-1.4 420.8-0.58 419.15 0.25 417.5 0.25ZM409.35-6.1L409.35-6.1Q410.65-6.1 412.23-8.43 413.8-10.75 414.95-15.1L414.95-15.1Q415.05-15.55 415.15-15.98 415.25-16.4 415.3-16.8L415.3-16.8Q414.5-18.65 413.63-19.43 412.75-20.2 411.9-20.2L411.9-20.2Q410.65-20.2 409.58-18.88 408.5-17.55 407.83-15.55 407.15-13.55 407.15-11.55L407.15-11.55Q407.15-8.8 407.78-7.45 408.4-6.1 409.35-6.1ZM412.7-27.05L412.7-27.05Q411.3-26.4 410.53-26.9 409.75-27.4 409.75-28.45L409.75-28.45Q411-29.95 412.08-32.02 413.15-34.1 413.8-36.13 414.45-38.15 414.3-39.55L414.3-39.55Q415.6-39.95 417.03-39.75 418.45-39.55 419.58-38.83 420.7-38.1 421.15-36.88 421.6-35.65 420.9-34.05L420.9-34.05Q420.35-32.75 419.43-31.6 418.5-30.45 416.9-29.35 415.3-28.25 412.7-27.05ZM446.15 0.35L446.15 0.35Q442.85 0.35 440.57-1.15 438.3-2.65 437.15-5.08 436-7.5 436-10.3L436-10.3Q436-12.95 437.02-15.6 438.05-18.25 440.05-20.48 442.05-22.7 444.92-24.03 447.8-25.35 451.55-25.35L451.55-25.35Q455.25-25.35 457.05-23.88 458.85-22.4 458.85-20.65L458.85-20.65Q458.85-18.8 457-17.25 455.15-15.7 451.6-15.7L451.6-15.7Q451.8-16.45 451.92-17.23 452.05-18 452.05-18.7L452.05-18.7Q452.05-19.75 451.6-20.48 451.15-21.2 450-21.2L450-21.2Q448.95-21.2 447.77-20.25 446.6-19.3 445.77-17.45 444.95-15.6 444.95-12.9L444.95-12.9Q444.95-10.25 445.82-8.6 446.7-6.95 448.1-6.23 449.5-5.5 451.05-5.5L451.05-5.5Q453.1-5.5 455-6.58 456.9-7.65 457.75-9.55L457.75-9.55 458.25-9.35Q458.25-6.75 457.07-4.93 455.9-3.1 454.05-1.93 452.2-0.75 450.1-0.2 448 0.35 446.15 0.35ZM479.15 0.25L479.15 0.25Q477.4 0.25 476.1-0.9 474.8-2.05 474.8-4.65L474.8-4.65Q474.8-4.9 474.8-5.15 474.8-5.4 474.85-5.65L474.85-5.65Q473.35-2.65 471.47-1.23 469.6 0.2 467.7 0.2L467.7 0.2Q465.95 0.2 464.4-1.03 462.85-2.25 461.9-4.65 460.95-7.05 460.95-10.45L460.95-10.45Q460.95-13.95 461.92-16.7 462.9-19.45 464.5-21.35 466.1-23.25 468-24.23 469.9-25.2 471.7-25.2L471.7-25.2Q473.7-25.2 475.3-23.98 476.9-22.75 477.5-20.1L477.5-20.1Q477.65-20.95 477.72-21.65 477.8-22.35 477.8-22.6L477.8-22.6Q477.85-23.95 479.17-24.6 480.5-25.25 482.1-25.25L482.1-25.25Q483.5-25.25 484.75-24.7 486-24.15 486.45-22.85L486.45-22.85 486.55-22.55Q485.95-21.2 485.35-19.3 484.75-17.4 484.25-15.33 483.75-13.25 483.45-11.28 483.15-9.3 483.15-7.8L483.15-7.8Q483.15-6.15 483.5-5.53 483.85-4.9 484.35-4.9L484.35-4.9Q485.2-4.9 485.9-6.1L485.9-6.1 486.3-5.9Q486.3-4.2 485.2-2.8 484.1-1.4 482.45-0.58 480.8 0.25 479.15 0.25ZM471-6.1L471-6.1Q472.3-6.1 473.87-8.43 475.45-10.75 476.6-15.1L476.6-15.1Q476.7-15.55 476.8-15.98 476.9-16.4 476.95-16.8L476.95-16.8Q476.15-18.65 475.27-19.43 474.4-20.2 473.55-20.2L473.55-20.2Q472.3-20.2 471.22-18.88 470.15-17.55 469.47-15.55 468.8-13.55 468.8-11.55L468.8-11.55Q468.8-8.8 469.42-7.45 470.05-6.1 471-6.1ZM477.85-28.1L477.85-28.1Q477.55-27.7 476.75-27.58 475.95-27.45 475.05-27.63 474.15-27.8 473.47-28.3 472.8-28.8 472.8-29.7L472.8-29.7Q472.8-30.55 473.47-31.08 474.15-31.6 475.15-31.95 476.15-32.3 477.15-32.58 478.15-32.85 478.82-33.13 479.5-33.4 479.5-33.85L479.5-33.85Q479.5-34.45 478.35-34.63 477.2-34.8 475.55-34.43 473.9-34.05 472.4-32.95L472.4-32.95Q470.6-34 470.42-35.15 470.25-36.3 471.27-37.33 472.3-38.35 474.15-38.98 476-39.6 478.3-39.6L478.3-39.6Q480.75-39.6 482.55-38.65 484.35-37.7 484.35-35.35L484.35-35.35Q484.35-34.1 483.6-33.23 482.85-32.35 481.77-31.73 480.7-31.1 479.67-30.58 478.65-30.05 478.1-29.48 477.55-28.9 477.85-28.1ZM502.74 10L502.74 10Q501.49 10 500.37 9.35 499.24 8.7 498.52 7.25 497.79 5.8 497.79 3.35L497.79 3.35Q497.79 1 498.42-1.75 499.04-4.5 499.84-7.28 500.64-10.05 501.27-12.55 501.89-15.05 501.89-17L501.89-17Q501.89-18.45 501.49-18.98 501.09-19.5 500.54-19.5L500.54-19.5Q500.04-19.5 499.54-19.2 499.04-18.9 498.69-18.5L498.69-18.5 498.34-18.7Q498.34-20.45 499.37-21.93 500.39-23.4 501.99-24.3 503.59-25.2 505.29-25.2L505.29-25.2Q506.94-25.2 507.94-24.38 508.94-23.55 509.47-22.25 509.99-20.95 510.09-19.45L510.09-19.45Q511.99-22.45 514.24-23.9 516.49-25.35 518.49-25.35L518.49-25.35Q521.19-25.35 523.07-22.8 524.94-20.25 524.94-14.9L524.94-14.9Q524.94-9.9 523.34-6.53 521.74-3.15 519.32-1.48 516.89 0.2 514.39 0.2L514.39 0.2Q512.24 0.2 510.42-1.07 508.59-2.35 507.59-4.8L507.59-4.8Q507.14-2.75 506.82-0.75 506.49 1.25 506.49 3.15L506.49 3.15Q506.49 4.2 506.62 5.2 506.74 6.2 507.04 7.2L507.04 7.2 507.04 7.5Q506.39 8.75 505.22 9.38 504.04 10 502.74 10ZM511.94-4.65L511.94-4.65Q513.14-4.65 514.04-5.6 514.94-6.55 515.59-8.08 516.24-9.6 516.57-11.35 516.89-13.1 516.89-14.75L516.89-14.75Q516.89-16.85 516.34-18.32 515.79-19.8 514.64-19.8L514.64-19.8Q513.19-19.8 511.39-16.88 509.59-13.95 508.59-8L508.59-8Q509.04-6.45 509.94-5.55 510.84-4.65 511.94-4.65ZM532.69 0.2L532.69 0.2Q530.54 0.2 529.24-1.25 527.94-2.7 527.94-5.2L527.94-5.2Q527.94-6.55 528.29-8.72 528.64-10.9 529.16-13.53 529.69-16.15 530.19-18.88 530.69-21.6 531.04-24.15 531.39-26.7 531.39-28.65L531.39-28.65Q531.39-31.1 530.74-32.2L530.74-32.2 530.74-32.5Q531.84-33.75 533.14-34.35 534.44-34.95 535.69-34.95L535.69-34.95Q537.59-34.95 538.94-33.6 540.29-32.25 540.29-29.55L540.29-29.55Q540.29-28.1 539.89-26 539.49-23.9 538.94-21.6 538.39-19.3 537.84-17.3L537.84-17.3Q538.79-19.15 540.36-20.98 541.94-22.8 543.96-24 545.99-25.2 548.19-25.2L548.19-25.2Q550.69-25.2 551.56-23.65 552.44-22.1 552.44-19.8L552.44-19.8Q552.44-17.7 551.99-15.33 551.54-12.95 551.09-10.78 550.64-8.6 550.64-7.15L550.64-7.15Q550.64-5.05 551.89-5.05L551.89-5.05Q552.44-5.05 552.86-5.38 553.29-5.7 553.49-6.1L553.49-6.1 553.84-5.85Q553.84-3.9 552.89-2.55 551.94-1.2 550.46-0.5 548.99 0.2 547.44 0.2L547.44 0.2Q545.39 0.2 543.74-1.18 542.09-2.55 542.09-5.65L542.09-5.65Q542.09-7.4 542.56-9.45 543.04-11.5 543.49-13.43 543.94-15.35 543.94-16.65L543.94-16.65Q543.94-18.35 542.74-18.35L542.74-18.35Q541.64-18.35 540.34-17.25 539.04-16.15 538.06-14.5 537.09-12.85 536.79-11.25L536.79-11.25Q536.69-10.85 536.69-10.3L536.69-10.3Q536.69-9.05 537.06-7.9 537.44-6.75 537.44-5.2L537.44-5.2Q537.44-2.9 536.24-1.35 535.04 0.2 532.69 0.2ZM574.68 0.25L574.68 0.25Q572.93 0.25 571.63-0.9 570.33-2.05 570.33-4.65L570.33-4.65Q570.33-4.9 570.33-5.15 570.33-5.4 570.38-5.65L570.38-5.65Q568.88-2.65 567.01-1.23 565.13 0.2 563.23 0.2L563.23 0.2Q561.48 0.2 559.93-1.03 558.38-2.25 557.43-4.65 556.48-7.05 556.48-10.45L556.48-10.45Q556.48-13.95 557.46-16.7 558.43-19.45 560.03-21.35 561.63-23.25 563.53-24.23 565.43-25.2 567.23-25.2L567.23-25.2Q569.23-25.2 570.83-23.98 572.43-22.75 573.03-20.1L573.03-20.1Q573.18-20.95 573.26-21.65 573.33-22.35 573.33-22.6L573.33-22.6Q573.38-23.95 574.71-24.6 576.03-25.25 577.63-25.25L577.63-25.25Q579.03-25.25 580.28-24.7 581.53-24.15 581.98-22.85L581.98-22.85 582.08-22.55Q581.48-21.2 580.88-19.3 580.28-17.4 579.78-15.33 579.28-13.25 578.98-11.28 578.68-9.3 578.68-7.8L578.68-7.8Q578.68-6.15 579.03-5.53 579.38-4.9 579.88-4.9L579.88-4.9Q580.73-4.9 581.43-6.1L581.43-6.1 581.83-5.9Q581.83-4.2 580.73-2.8 579.63-1.4 577.98-0.58 576.33 0.25 574.68 0.25ZM566.53-6.1L566.53-6.1Q567.83-6.1 569.41-8.43 570.98-10.75 572.13-15.1L572.13-15.1Q572.23-15.55 572.33-15.98 572.43-16.4 572.48-16.8L572.48-16.8Q571.68-18.65 570.81-19.43 569.93-20.2 569.08-20.2L569.08-20.2Q567.83-20.2 566.76-18.88 565.68-17.55 565.01-15.55 564.33-13.55 564.33-11.55L564.33-11.55Q564.33-8.8 564.96-7.45 565.58-6.1 566.53-6.1ZM573.38-28.1L573.38-28.1Q573.08-27.7 572.28-27.58 571.48-27.45 570.58-27.63 569.68-27.8 569.01-28.3 568.33-28.8 568.33-29.7L568.33-29.7Q568.33-30.55 569.01-31.08 569.68-31.6 570.68-31.95 571.68-32.3 572.68-32.58 573.68-32.85 574.36-33.13 575.03-33.4 575.03-33.85L575.03-33.85Q575.03-34.45 573.88-34.63 572.73-34.8 571.08-34.43 569.43-34.05 567.93-32.95L567.93-32.95Q566.13-34 565.96-35.15 565.78-36.3 566.81-37.33 567.83-38.35 569.68-38.98 571.53-39.6 573.83-39.6L573.83-39.6Q576.28-39.6 578.08-38.65 579.88-37.7 579.88-35.35L579.88-35.35Q579.88-34.1 579.13-33.23 578.38-32.35 577.31-31.73 576.23-31.1 575.21-30.58 574.18-30.05 573.63-29.48 573.08-28.9 573.38-28.1ZM594.08-26.75L594.08-26.75Q592.08-26.75 590.81-27.98 589.53-29.2 589.53-31.05L589.53-31.05Q589.53-33.05 591.03-34.5 592.53-35.95 594.68-35.95L594.68-35.95Q596.68-35.95 597.96-34.7 599.23-33.45 599.23-31.6L599.23-31.6Q599.23-29.6 597.73-28.18 596.23-26.75 594.08-26.75ZM590.58 0.2L590.58 0.2Q588.63 0.2 587.08-1.18 585.53-2.55 585.53-5.6L585.53-5.6Q585.53-7.35 586.01-8.88 586.48-10.4 587.11-11.85 587.73-13.3 588.21-14.68 588.68-16.05 588.68-17.4L588.68-17.4Q588.68-18.6 588.28-19.13 587.88-19.65 587.33-19.65L587.33-19.65Q586.48-19.65 585.68-18.55L585.68-18.55 585.33-18.75Q585.53-20.75 586.61-22.18 587.68-23.6 589.26-24.4 590.83-25.2 592.38-25.2L592.38-25.2Q594.28-25.2 595.68-23.98 597.08-22.75 597.08-20L597.08-20Q597.08-18.35 596.61-16.53 596.13-14.7 595.51-12.9 594.88-11.1 594.41-9.55 593.93-8 593.93-6.9L593.93-6.9Q593.93-5.95 594.31-5.55 594.68-5.15 595.13-5.15L595.13-5.15Q595.58-5.15 596.01-5.43 596.43-5.7 596.63-6.05L596.63-6.05 596.98-5.95Q596.98-4.1 596.01-2.73 595.03-1.35 593.58-0.58 592.13 0.2 590.58 0.2ZM619.58 0.35L619.58 0.35Q616.28 0.35 614-1.15 611.73-2.65 610.58-5.08 609.43-7.5 609.43-10.3L609.43-10.3Q609.43-12.95 610.45-15.6 611.48-18.25 613.48-20.48 615.48-22.7 618.35-24.03 621.23-25.35 624.98-25.35L624.98-25.35Q628.68-25.35 630.48-23.88 632.28-22.4 632.28-20.65L632.28-20.65Q632.28-18.8 630.43-17.25 628.58-15.7 625.03-15.7L625.03-15.7Q625.23-16.45 625.35-17.23 625.48-18 625.48-18.7L625.48-18.7Q625.48-19.75 625.03-20.48 624.58-21.2 623.43-21.2L623.43-21.2Q622.38-21.2 621.2-20.25 620.03-19.3 619.2-17.45 618.38-15.6 618.38-12.9L618.38-12.9Q618.38-10.25 619.25-8.6 620.13-6.95 621.53-6.23 622.93-5.5 624.48-5.5L624.48-5.5Q626.53-5.5 628.43-6.58 630.33-7.65 631.18-9.55L631.18-9.55 631.68-9.35Q631.68-6.75 630.5-4.93 629.33-3.1 627.48-1.93 625.63-0.75 623.53-0.2 621.43 0.35 619.58 0.35ZM639.37 0.2L639.37 0.2Q637.22 0.2 635.92-1.25 634.62-2.7 634.62-5.2L634.62-5.2Q634.62-6.55 634.97-8.72 635.32-10.9 635.85-13.53 636.37-16.15 636.87-18.88 637.37-21.6 637.72-24.15 638.07-26.7 638.07-28.65L638.07-28.65Q638.07-31.1 637.42-32.2L637.42-32.2 637.42-32.5Q638.52-33.75 639.82-34.35 641.12-34.95 642.37-34.95L642.37-34.95Q644.27-34.95 645.62-33.6 646.97-32.25 646.97-29.55L646.97-29.55Q646.97-28.1 646.57-26 646.17-23.9 645.62-21.6 645.07-19.3 644.52-17.3L644.52-17.3Q645.47-19.15 647.05-20.98 648.62-22.8 650.65-24 652.67-25.2 654.87-25.2L654.87-25.2Q657.37-25.2 658.25-23.65 659.12-22.1 659.12-19.8L659.12-19.8Q659.12-17.7 658.67-15.33 658.22-12.95 657.77-10.78 657.32-8.6 657.32-7.15L657.32-7.15Q657.32-5.05 658.57-5.05L658.57-5.05Q659.12-5.05 659.55-5.38 659.97-5.7 660.17-6.1L660.17-6.1 660.52-5.85Q660.52-3.9 659.57-2.55 658.62-1.2 657.15-0.5 655.67 0.2 654.12 0.2L654.12 0.2Q652.07 0.2 650.42-1.18 648.77-2.55 648.77-5.65L648.77-5.65Q648.77-7.4 649.25-9.45 649.72-11.5 650.17-13.43 650.62-15.35 650.62-16.65L650.62-16.65Q650.62-18.35 649.42-18.35L649.42-18.35Q648.32-18.35 647.02-17.25 645.72-16.15 644.75-14.5 643.77-12.85 643.47-11.25L643.47-11.25Q643.37-10.85 643.37-10.3L643.37-10.3Q643.37-9.05 643.75-7.9 644.12-6.75 644.12-5.2L644.12-5.2Q644.12-2.9 642.92-1.35 641.72 0.2 639.37 0.2ZM681.37 0.25L681.37 0.25Q679.62 0.25 678.32-0.9 677.02-2.05 677.02-4.65L677.02-4.65Q677.02-4.9 677.02-5.15 677.02-5.4 677.07-5.65L677.07-5.65Q675.57-2.65 673.7-1.23 671.82 0.2 669.92 0.2L669.92 0.2Q668.17 0.2 666.62-1.03 665.07-2.25 664.12-4.65 663.17-7.05 663.17-10.45L663.17-10.45Q663.17-13.95 664.15-16.7 665.12-19.45 666.72-21.35 668.32-23.25 670.22-24.23 672.12-25.2 673.92-25.2L673.92-25.2Q675.92-25.2 677.52-23.98 679.12-22.75 679.72-20.1L679.72-20.1Q679.87-20.95 679.95-21.65 680.02-22.35 680.02-22.6L680.02-22.6Q680.07-23.95 681.4-24.6 682.72-25.25 684.32-25.25L684.32-25.25Q685.72-25.25 686.97-24.7 688.22-24.15 688.67-22.85L688.67-22.85 688.77-22.55Q688.17-21.2 687.57-19.3 686.97-17.4 686.47-15.33 685.97-13.25 685.67-11.28 685.37-9.3 685.37-7.8L685.37-7.8Q685.37-6.15 685.72-5.53 686.07-4.9 686.57-4.9L686.57-4.9Q687.42-4.9 688.12-6.1L688.12-6.1 688.52-5.9Q688.52-4.2 687.42-2.8 686.32-1.4 684.67-0.58 683.02 0.25 681.37 0.25ZM673.22-6.1L673.22-6.1Q674.52-6.1 676.1-8.43 677.67-10.75 678.82-15.1L678.82-15.1Q678.92-15.55 679.02-15.98 679.12-16.4 679.17-16.8L679.17-16.8Q678.37-18.65 677.5-19.43 676.62-20.2 675.77-20.2L675.77-20.2Q674.52-20.2 673.45-18.88 672.37-17.55 671.7-15.55 671.02-13.55 671.02-11.55L671.02-11.55Q671.02-8.8 671.65-7.45 672.27-6.1 673.22-6.1ZM677.72-28.7L677.72-28.7Q675.27-28.7 673.75-29.58 672.22-30.45 671.52-31.78 670.82-33.1 670.82-34.45L670.82-34.45Q670.82-36.15 671.77-37.43 672.72-38.7 674.42-38.7L674.42-38.7Q674.72-38.7 674.67-38.35L674.67-38.35Q674.62-38.15 674.6-37.98 674.57-37.8 674.57-37.55L674.57-37.55Q674.57-36.35 675.6-35.77 676.62-35.2 678.02-35.2L678.02-35.2Q679.27-35.2 680.5-35.65 681.72-36.1 682.47-36.95 683.22-37.8 683.07-38.95L683.07-38.95Q683.07-39.05 683.15-39.13 683.22-39.2 683.62-39.2L683.62-39.2Q685.17-39.2 685.97-38.27 686.77-37.35 686.77-36.05L686.77-36.05Q686.77-34.5 685.7-32.8 684.62-31.1 682.6-29.9 680.57-28.7 677.72-28.7ZM697.22 0.15L697.22 0.15Q695.37 0.15 693.87-1.33 692.37-2.8 692.37-5.45L692.37-5.45Q692.37-6.75 692.72-8.4 693.07-10.05 693.49-11.75 693.92-13.45 694.27-14.95 694.62-16.45 694.62-17.4L694.62-17.4Q694.62-18.4 694.22-18.98 693.82-19.55 693.17-19.55L693.17-19.55Q692.32-19.55 691.32-18.55L691.32-18.55 691.02-18.75Q690.97-19.55 691.37-20.65 691.77-21.75 692.59-22.78 693.42-23.8 694.72-24.5 696.02-25.2 697.82-25.2L697.82-25.2Q700.47-25.2 701.74-23.68 703.02-22.15 703.02-19.95L703.02-19.95Q703.02-19.15 702.87-18.4L702.87-18.4Q703.92-19.95 705.47-21.53 707.02-23.1 708.89-24.15 710.77-25.2 712.77-25.2L712.77-25.2Q715.12-25.2 715.97-23.7 716.82-22.2 716.82-19.95L716.82-19.95Q716.82-17.85 716.37-15.45 715.92-13.05 715.47-10.83 715.02-8.6 715.02-7.1L715.02-7.1Q715.02-5.1 716.17-5.1L716.17-5.1Q716.77-5.1 717.22-5.48 717.67-5.85 717.82-6.2L717.82-6.2 718.17-6.05Q718.17-4.2 717.14-2.8 716.12-1.4 714.57-0.63 713.02 0.15 711.42 0.15L711.42 0.15Q709.47 0.15 707.97-1.2 706.47-2.55 706.47-5.6L706.47-5.6Q706.47-7.4 706.94-9.5 707.42-11.6 707.87-13.55 708.32-15.5 708.32-16.75L708.32-16.75Q708.32-17.5 708.04-17.93 707.77-18.35 707.07-18.35L707.07-18.35Q705.92-18.35 704.54-17.3 703.17-16.25 702.19-14.5 701.22-12.75 701.22-10.65L701.22-10.65Q701.22-9.3 701.54-8.05 701.87-6.8 701.87-5.35L701.87-5.35Q701.87-2.65 700.47-1.25 699.07 0.15 697.22 0.15ZM732.97 10L732.97 10Q730.52 10 728.92 8.55 727.32 7.1 727.32 4.45L727.32 4.45Q727.32 1.6 729.32-2.25L729.32-2.25Q728.97-2.15 728.62-2.1 728.27-2.05 727.92-2.05L727.92-2.05Q725.02-2.05 723.04-4.58 721.07-7.1 721.07-11.6L721.07-11.6Q721.07-15.65 722.64-18.75 724.22-21.85 726.67-23.6 729.12-25.35 731.77-25.35L731.77-25.35Q733.62-25.35 735.12-24.43 736.62-23.5 737.57-21.45L737.57-21.45Q737.62-21.95 737.62-22.35 737.62-22.75 737.62-23.1L737.62-23.1Q737.62-23.95 738.92-24.5 740.22-25.05 741.82-25.05L741.82-25.05Q743.27-25.05 744.52-24.5 745.77-23.95 746.17-22.65L746.17-22.65 746.27-22.35Q745.82-21.95 745.49-19.75 745.17-17.55 744.72-13.65L744.72-13.65Q744.42-11.2 743.97-8.08 743.52-4.95 742.74-1.78 741.97 1.4 740.72 4.08 739.47 6.75 737.57 8.38 735.67 10 732.97 10ZM731.32-7.8L731.32-7.8Q732.77-7.8 734.54-10.18 736.32-12.55 737.37-17L737.37-17Q736.47-18.95 735.54-19.78 734.62-20.6 733.67-20.6L733.67-20.6Q732.42-20.6 731.32-19.35 730.22-18.1 729.54-16.18 728.87-14.25 728.87-12.2L728.87-12.2Q728.87-10.1 729.57-8.95 730.27-7.8 731.32-7.8ZM730.72 4.25L730.72 4.25Q732.42 4.25 734.19 0.93 735.97-2.4 736.67-8.45L736.67-8.45Q732.87-3.3 731.39-0.53 729.92 2.25 729.92 3.4L729.92 3.4Q729.92 4.25 730.72 4.25Z" opacity="1" transform="matrix(1,0,0,1,0,0)" fill="#5465ff" class="slogan-text-1" data-fill-palette-color="secondary" id="text-1"></path></svg></g></svg></g></svg></g></svg></g></svg></g><defs></defs></svg><rect width="395.52" height="71.48393576079346" fill="none" stroke="none" visibility="hidden"></rect></g></svg></g></svg>